<svg width="18" height="18" viewBox="0 0 18 18" fill="none" xmlns="http://www.w3.org/2000/svg">
<path fill-rule="evenodd" clip-rule="evenodd" d="M9 6.375C7.55025 6.375 6.375 7.55025 6.375 9C6.375 10.4497 7.55025 11.625 9 11.625C10.4497 11.625 11.625 10.4497 11.625 9C11.625 7.55025 10.4497 6.375 9 6.375ZM7.5 9C7.5 8.17157 8.17157 7.5 9 7.5C9.82843 7.5 10.5 8.17157 10.5 9C10.5 9.82843 9.82843 10.5 9 10.5C8.17157 10.5 7.5 9.82843 7.5 9Z" fill="#5A657C"/>
<path fill-rule="evenodd" clip-rule="evenodd" d="M9 3.5625C4.91038 3.5625 2.51541 6.95275 1.73298 8.77842C1.66349 8.94056 1.67409 9.12591 1.76161 9.27908C2.75301 11.014 4.89764 14.4375 9 14.4375C13.1024 14.4375 15.247 11.014 16.2384 9.27908C16.3317 9.11578 16.3372 8.91666 16.2531 8.74844C15.8577 7.95765 15.0703 6.67638 13.8801 5.58535C12.6859 4.49068 11.0565 3.5625 9 3.5625ZM9 13.3125C5.7574 13.3125 3.91953 10.738 2.88181 8.9688C3.69287 7.2753 5.75583 4.6875 9 4.6875C10.6935 4.6875 12.0641 5.44681 13.1199 6.41465C14.056 7.27273 14.7212 8.27497 15.1081 8.98597C14.0686 10.7546 12.2321 13.3125 9 13.3125Z" fill="#5A657C"/>
</svg>
