<svg width="42" height="45" viewBox="0 0 42 45" fill="none" xmlns="http://www.w3.org/2000/svg">
<path d="M21.0041 44.7682C19.6352 44.7678 18.2904 44.4178 17.1043 43.7535L3.89819 36.3474C2.71295 35.682 1.72877 34.7252 1.04451 33.573C0.360249 32.4209 1.59313e-05 31.114 0 29.7837L0 14.9724C0.00159893 13.6448 0.361748 12.3408 1.04444 11.1908C1.72714 10.0409 2.70847 9.08523 3.89032 8.41942L17.0965 1.01619C18.282 0.350487 19.627 0 20.9962 0C22.3654 0 23.7105 0.350487 24.896 1.01619L38.0916 8.40819C39.2775 9.07302 40.2625 10.0294 40.9477 11.1813C41.6329 12.3332 41.9941 13.6401 41.9951 14.9706V29.7819C41.9966 31.1108 41.6385 32.4167 40.9567 33.5686C40.2749 34.7204 39.2933 35.6777 38.1105 36.3444L24.9039 43.7532C23.7179 44.4177 22.3731 44.7677 21.0041 44.7682ZM13.8264 28.4825L10.8985 30.513C11.4919 31.3402 12.2817 32.016 13.2011 32.4833C14.1204 32.9505 15.1422 33.1954 16.1797 33.1971C16.8794 33.1965 17.5746 33.0891 18.24 32.8787C19.5685 32.4751 20.7286 31.6676 21.5493 30.575C22.37 29.4825 22.8081 28.1626 22.7989 26.8099V24.3355C23.1085 24.4847 23.4289 24.6116 23.7577 24.7151C24.4225 24.9231 25.1165 25.0297 25.8149 25.0309C26.8525 25.0298 27.8745 24.7854 28.7942 24.3185C29.7139 23.8515 30.5041 23.1758 31.0976 22.3486L28.1629 20.3143C27.799 20.8107 27.2821 21.1819 26.6869 21.3742C26.0917 21.5665 25.449 21.5699 24.8517 21.3839C24.2544 21.1979 23.7333 20.8322 23.3639 20.3396C22.9944 19.847 22.7956 19.253 22.7962 18.6434V11.5662H19.1962V26.8035C19.1975 27.4136 18.9992 28.0083 18.63 28.5018C18.2608 28.9952 17.7398 29.3618 17.1422 29.5487C16.5446 29.7355 15.9014 29.7329 15.3054 29.5412C14.7094 29.3495 14.1916 28.9787 13.8266 28.4823L13.8264 28.4825Z" fill="#036FE3"/>
</svg>
