<svg width="18" height="18" viewBox="0 0 18 18" fill="none" xmlns="http://www.w3.org/2000/svg">
<g clip-path="url(#clip0_82_43838)">
<path d="M2.50498 12.75C2.18794 12.2017 1.94148 11.6156 1.77148 11.0055C2.14146 10.8173 2.45218 10.5305 2.66926 10.1767C2.88633 9.82286 3.00131 9.41591 3.00146 9.00082C3.00162 8.58574 2.88695 8.1787 2.67014 7.82474C2.45332 7.47078 2.14282 7.18369 1.77298 6.99524C2.11201 5.76935 2.75753 4.64995 3.64873 3.74249C3.9968 3.96878 4.4007 4.09436 4.81572 4.10532C5.23074 4.11629 5.6407 4.01221 6.00023 3.80461C6.35977 3.59701 6.65485 3.29399 6.85283 2.92907C7.05081 2.56415 7.14396 2.15157 7.12198 1.73699C8.35357 1.41871 9.64591 1.41922 10.8772 1.73849C10.8555 2.15306 10.9488 2.56558 11.1469 2.9304C11.3451 3.29521 11.6403 3.59809 11.9999 3.80553C12.3595 4.01297 12.7694 4.11688 13.1844 4.10575C13.5994 4.09463 14.0033 3.9689 14.3512 3.74249C14.7855 4.18499 15.171 4.68824 15.495 5.24999C15.8197 5.81174 16.0627 6.39749 16.2285 6.99449C15.8585 7.18267 15.5478 7.46952 15.3307 7.82332C15.1136 8.17712 14.9987 8.58407 14.9985 8.99915C14.9984 9.41424 15.113 9.82128 15.3298 10.1752C15.5466 10.5292 15.8571 10.8163 16.227 11.0047C15.888 12.2306 15.2424 13.35 14.3512 14.2575C14.0032 14.0312 13.5993 13.9056 13.1843 13.8947C12.7692 13.8837 12.3593 13.9878 11.9997 14.1954C11.6402 14.403 11.3451 14.706 11.1471 15.0709C10.9492 15.4358 10.856 15.8484 10.878 16.263C9.6464 16.5813 8.35406 16.5808 7.12273 16.2615C7.14452 15.8469 7.05118 15.4344 6.85305 15.0696C6.65492 14.7048 6.35972 14.4019 6.00011 14.1944C5.64051 13.987 5.23053 13.8831 4.81553 13.8942C4.40053 13.9054 3.99671 14.0311 3.64873 14.2575C3.20548 13.8052 2.82118 13.2987 2.50498 12.75ZM6.74998 12.897C7.54921 13.358 8.15012 14.0978 8.43749 14.9745C8.81174 15.0097 9.18748 15.0105 9.56173 14.9752C9.84929 14.0984 10.4505 13.3586 11.25 12.8977C12.0489 12.4355 12.9904 12.2846 13.8937 12.474C14.1112 12.168 14.2987 11.8417 14.4547 11.5005C13.8393 10.8131 13.4993 9.92265 13.5 8.99999C13.5 8.05499 13.8525 7.17224 14.4547 6.49949C14.2976 6.15835 14.1093 5.83246 13.8922 5.52599C12.9894 5.71522 12.0486 5.5646 11.25 5.10299C10.4508 4.64202 9.84985 3.90223 9.56249 3.02549C9.18824 2.99024 8.81248 2.98949 8.43823 3.02474C8.15068 3.9016 7.54949 4.64141 6.74998 5.10224C5.95107 5.56448 5.00959 5.71538 4.10623 5.52599C3.88916 5.8322 3.70133 6.15814 3.54523 6.49949C4.16066 7.18691 4.50065 8.07733 4.49998 8.99999C4.49998 9.94499 4.14748 10.8277 3.54523 11.5005C3.70234 11.8416 3.89064 12.1675 4.10773 12.474C5.01052 12.2848 5.95139 12.4354 6.74998 12.897ZM8.99999 11.25C8.40325 11.25 7.83095 11.0129 7.40899 10.591C6.98704 10.169 6.74998 9.59673 6.74998 8.99999C6.74998 8.40325 6.98704 7.83096 7.40899 7.409C7.83095 6.98704 8.40325 6.74999 8.99999 6.74999C9.59672 6.74999 10.169 6.98704 10.591 7.409C11.0129 7.83096 11.25 8.40325 11.25 8.99999C11.25 9.59673 11.0129 10.169 10.591 10.591C10.169 11.0129 9.59672 11.25 8.99999 11.25ZM8.99999 9.74999C9.1989 9.74999 9.38966 9.67097 9.53031 9.53032C9.67097 9.38967 9.74999 9.1989 9.74999 8.99999C9.74999 8.80108 9.67097 8.61031 9.53031 8.46966C9.38966 8.32901 9.1989 8.24999 8.99999 8.24999C8.80107 8.24999 8.61031 8.32901 8.46965 8.46966C8.329 8.61031 8.24999 8.80108 8.24999 8.99999C8.24999 9.1989 8.329 9.38967 8.46965 9.53032C8.61031 9.67097 8.80107 9.74999 8.99999 9.74999Z" fill="currentColor"/>
</g>
<defs>
<clipPath id="clip0_82_43838">
<rect width="18" height="18" fill="white"/>
</clipPath>
</defs>
</svg>
